<?xml version="1.0" encoding="UTF-8" standalone="no"?>
<svg width="300px" height="300px" viewBox="0 0 300 300" version="1.1" xmlns="http://www.w3.org/2000/svg" xmlns:xlink="http://www.w3.org/1999/xlink">
    <!-- Generator: Sketch 3.8.2 (29753) - http://www.bohemiancoding.com/sketch -->
    <title>avatar-3</title>
    <desc>Created with Sketch.</desc>
    <defs></defs>
    <g id="Page-1" stroke="none" stroke-width="1" fill="none" fill-rule="evenodd" fill-opacity="0.246376812">
        <g id="avatar-3" fill="#FFFFFF">
            <polygon id="Triangle-1" points="150 50 250 250 150 200 50 250"></polygon>
            <polygon id="Triangle-1" transform="translate(150.000000, 150.000000) rotate(90.000000) translate(-150.000000, -150.000000) " points="150 50 250 250 150 200 50 250"></polygon>
            <polygon id="Triangle-1" transform="translate(150.000000, 150.000000) scale(-1, 1) rotate(90.000000) translate(-150.000000, -150.000000) " points="150 50 250 250 150 200 50 250"></polygon>
            <polygon id="Triangle-1" transform="translate(150.000000, 150.000000) scale(1, -1) translate(-150.000000, -150.000000) " points="150 50 250 250 150 200 50 250"></polygon>
            <g id="Group" transform="translate(125.000000, 125.000000)">
                <polygon id="Triangle-1" points="25 0 50 50 25 37.5 0 50"></polygon>
                <polygon id="Triangle-1" transform="translate(25.000000, 25.000000) rotate(90.000000) translate(-25.000000, -25.000000) " points="25 6.11066753e-13 50 50 25 37.5 -6.37957654e-13 50"></polygon>
                <polygon id="Triangle-1" transform="translate(25.000000, 25.000000) scale(-1, 1) rotate(90.000000) translate(-25.000000, -25.000000) " points="25 -7.10542736e-15 50 50 25 37.5 8.63623586e-15 50"></polygon>
                <polygon id="Triangle-1" transform="translate(25.000000, 25.000000) scale(1, -1) translate(-25.000000, -25.000000) " points="25 0 50 50 25 37.5 0 50"></polygon>
            </g>
        </g>
    </g>
</svg>