<?xml version="1.0" encoding="UTF-8"?>
<svg width="16px" height="16px" viewBox="0 0 16 16" version="1.1" xmlns="http://www.w3.org/2000/svg" xmlns:xlink="http://www.w3.org/1999/xlink">
    <!-- Generator: Sketch 40.3 (33839) - http://www.bohemiancoding.com/sketch -->
    <title>file-word</title>
    <desc>Created with Sketch.</desc>
    <defs></defs>
    <g id="Page-1" stroke="none" stroke-width="1" fill="none" fill-rule="evenodd">
        <path d="M16,2.063 L16,13.095 C16,13.188 15.967,13.265 15.9,13.325 C15.833,13.387 15.753,13.417 15.66,13.417 L9.954,13.417 L9.954,11.887 L14.609,11.887 L14.609,11.19 L9.953,11.19 L9.953,10.337 L14.608,10.337 L14.608,9.641 L9.953,9.641 L9.953,8.781 L14.608,8.781 L14.608,8.093 L9.953,8.093 L9.953,7.231 L14.608,7.231 L14.608,6.535 L9.953,6.535 L9.953,5.683 L14.608,5.683 L14.608,4.987 L9.953,4.987 L9.953,4.117 L14.608,4.117 L14.608,3.455 L9.953,3.455 L9.953,1.725 L15.661,1.725 C15.754,1.725 15.834,1.757 15.901,1.825 C15.968,1.891 16.001,1.971 16.001,2.063 L16,2.063 Z M9.1,0.001 L9.1,15.149 L0,13.575 L0,1.619 L9.1,0 L9.1,0.001 Z M7.727,4.473 L6.587,4.543 L5.857,9.067 L5.839,9.067 C5.804,8.853 5.669,8.104 5.429,6.822 L5.004,4.647 L3.934,4.7 L3.507,6.822 C3.257,8.058 3.117,8.777 3.081,8.98 L3.064,8.98 L2.42,4.813 L1.436,4.865 L2.488,10.12 L3.576,10.19 L3.986,8.145 C4.223,6.945 4.359,6.248 4.394,6.057 L4.42,6.057 C4.455,6.26 4.59,6.973 4.83,8.197 L5.238,10.303 L6.412,10.373 L7.726,4.473 L7.727,4.473 Z" id="file-word" fill="#2B579A"></path>
    </g>
</svg>