<?xml version="1.0" encoding="UTF-8"?>
<svg width="11px" height="15px" viewBox="0 0 11 15" version="1.1" xmlns="http://www.w3.org/2000/svg" xmlns:xlink="http://www.w3.org/1999/xlink">
    <!-- Generator: Sketch 40.3 (33839) - http://www.bohemiancoding.com/sketch -->
    <title>file-pdf</title>
    <desc>Created with Sketch.</desc>
    <defs></defs>
    <g id="Page-1" stroke="none" stroke-width="1" fill="none" fill-rule="evenodd">
        <g id="file-pdf">
            <polygon id="rectangle" fill="#E34947" points="0 0 8 0 11 3 11 15 0 15"></polygon>
            <polygon id="triangle" fill="#B53A38" points="8 0 11 3 8 3"></polygon>
            <g id="logo" transform="translate(6.000000, 7.500000) scale(1, -1) translate(-6.000000, -7.500000) translate(1.500000, 3.500000)" fill="#FFFFFF">
                <path d="M2.81989483,3.13199105 C2.65796779,2.81733781 2.49945716,2.525783 2.35341915,2.25794183 C3.16169862,2.60721477 4.03185309,2.83076063 4.86008874,2.98959732 C4.74881135,3.06895973 4.64067923,3.15285235 4.53916301,3.24149888 C4.08304503,3.6397651 3.73516762,4.13674497 3.4831124,4.6594519 C3.32346297,4.21526846 3.13322853,3.74340045 2.81989483,3.13199105 M2.51252629,3.29423937 C2.74739099,3.76901566 3.01430489,4.30391499 3.22785769,4.84105145 L3.31256299,5.05324385 C3.03344763,6.14832215 2.86609772,7.02757271 3.01560638,7.5958613 C3.05578988,7.74423937 3.22227213,7.83411633 3.40025088,7.83411633 L3.50859991,7.83243848 L3.52855609,7.83243848 C3.77204316,7.83629754 3.88689965,7.5167226 3.89996878,7.39244966 C3.92138913,7.18557047 3.82849529,6.8352349 3.82849529,6.8352349 C3.82849529,6.97673378 3.83391816,7.20536913 3.74731486,7.40251678 C3.64661207,7.63064877 3.5504645,7.76694631 3.46407811,7.7885906 C3.42042397,7.75855705 3.37807132,7.69642058 3.36359224,7.57684564 C3.33365798,7.40922819 3.32476446,7.19770694 3.32476446,7.08864653 C3.32476446,6.70329978 3.39808173,6.19474273 3.54260134,5.67041387 C3.57004108,5.751566 3.59406442,5.82958613 3.61320716,5.90262864 C3.64265337,6.01784116 3.83131518,6.78137584 3.83131518,6.78137584 C3.83131518,6.78137584 3.78375657,5.76510067 3.71738059,5.45755034 C3.70328111,5.39256152 3.68739209,5.32829978 3.67112347,5.26252796 C3.90945881,4.57561521 4.29361525,3.96247204 4.75184816,3.52114094 C4.93259257,3.34703579 5.16078714,3.20665548 5.37672601,3.07857942 C5.84835342,3.14815436 6.28267145,3.18092841 6.64491948,3.17690157 C7.1254404,3.17041387 7.47836109,3.09697987 7.62119961,2.95190157 C7.69104623,2.88137584 7.71951632,2.79614094 7.72835561,2.70055928 C7.73036207,2.66336689 7.71279196,2.5761745 7.70774869,2.55436242 C7.71279196,2.58076063 7.71279196,2.71124161 7.32711711,2.83814318 C7.02321922,2.93842282 6.45435966,2.9352349 5.7721078,2.86029083 C6.56140721,2.46202461 7.33037084,2.26420582 7.57412905,2.38288591 C7.63356376,2.41286353 7.70590491,2.51487696 7.70590491,2.51487696 C7.70590491,2.51487696 7.66290151,2.31364653 7.63204535,2.26336689 C7.59272951,2.20861298 7.51550778,2.14938479 7.4423532,2.12947427 C7.05754601,2.02354586 6.05556146,2.26868009 5.18220749,2.7832774 C4.20657811,2.63512304 3.1350723,2.3614094 2.27592627,2.07063758 C1.43185583,0.5450783 0.797216805,-0.155592841 0.281067594,0.110961969 L0.0911042945,0.209340045 C0.0140994741,0.2549217 0.00222337862,0.365604027 0.020118865,0.455872483 C0.0802585451,0.759619687 0.449502082,1.21700224 1.19129711,1.67376957 C1.27101337,1.72354586 1.62669972,1.91756152 1.62669972,1.91756152 C1.62669972,1.91756152 1.36352761,1.65475391 1.30181529,1.60318792 C0.709691608,1.10290828 0.272770596,0.473378076 0.283616345,0.229250559 L0.285785495,0.208053691 C0.788648663,0.281935123 1.54297053,1.33769575 2.51252629,3.29423937"></path>
                <path d="M2.81989483,3.13199105 C2.65796779,2.81733781 2.49945716,2.525783 2.35341915,2.25794183 C3.16169862,2.60721477 4.03185309,2.83076063 4.86008874,2.98959732 C4.74881135,3.06895973 4.64067923,3.15285235 4.53916301,3.24149888 C4.08304503,3.6397651 3.73516762,4.13674497 3.4831124,4.6594519 C3.32346297,4.21526846 3.13322853,3.74340045 2.81989483,3.13199105 M2.51252629,3.29423937 C2.74739099,3.76901566 3.01430489,4.30391499 3.22785769,4.84105145 L3.31256299,5.05324385 C3.03344763,6.14832215 2.86609772,7.02757271 3.01560638,7.5958613 C3.05578988,7.74423937 3.22227213,7.83411633 3.40025088,7.83411633 L3.50859991,7.83243848 L3.52855609,7.83243848 C3.77204316,7.83629754 3.88689965,7.5167226 3.89996878,7.39244966 C3.92138913,7.18557047 3.82849529,6.8352349 3.82849529,6.8352349 C3.82849529,6.97673378 3.83391816,7.20536913 3.74731486,7.40251678 C3.64661207,7.63064877 3.5504645,7.76694631 3.46407811,7.7885906 C3.42042397,7.75855705 3.37807132,7.69642058 3.36359224,7.57684564 C3.33365798,7.40922819 3.32476446,7.19770694 3.32476446,7.08864653 C3.32476446,6.70329978 3.39808173,6.19474273 3.54260134,5.67041387 C3.57004108,5.751566 3.59406442,5.82958613 3.61320716,5.90262864 C3.64265337,6.01784116 3.83131518,6.78137584 3.83131518,6.78137584 C3.83131518,6.78137584 3.78375657,5.76510067 3.71738059,5.45755034 C3.70328111,5.39256152 3.68739209,5.32829978 3.67112347,5.26252796 C3.90945881,4.57561521 4.29361525,3.96247204 4.75184816,3.52114094 C4.93259257,3.34703579 5.16078714,3.20665548 5.37672601,3.07857942 C5.84835342,3.14815436 6.28267145,3.18092841 6.64491948,3.17690157 C7.1254404,3.17041387 7.47836109,3.09697987 7.62119961,2.95190157 C7.69104623,2.88137584 7.71951632,2.79614094 7.72835561,2.70055928 C7.73036207,2.66336689 7.71279196,2.5761745 7.70774869,2.55436242 C7.71279196,2.58076063 7.71279196,2.71124161 7.32711711,2.83814318 C7.02321922,2.93842282 6.45435966,2.9352349 5.7721078,2.86029083 C6.56140721,2.46202461 7.33037084,2.26420582 7.57412905,2.38288591 C7.63356376,2.41286353 7.70590491,2.51487696 7.70590491,2.51487696 C7.70590491,2.51487696 7.66290151,2.31364653 7.63204535,2.26336689 C7.59272951,2.20861298 7.51550778,2.14938479 7.4423532,2.12947427 C7.05754601,2.02354586 6.05556146,2.26868009 5.18220749,2.7832774 C4.20657811,2.63512304 3.1350723,2.3614094 2.27592627,2.07063758 C1.43185583,0.5450783 0.797216805,-0.155592841 0.281067594,0.110961969 L0.0911042945,0.209340045 C0.0140994741,0.2549217 0.00222337862,0.365604027 0.020118865,0.455872483 C0.0802585451,0.759619687 0.449502082,1.21700224 1.19129711,1.67376957 C1.27101337,1.72354586 1.62669972,1.91756152 1.62669972,1.91756152 C1.62669972,1.91756152 1.36352761,1.65475391 1.30181529,1.60318792 C0.709691608,1.10290828 0.272770596,0.473378076 0.283616345,0.229250559 L0.285785495,0.208053691 C0.788648663,0.281935123 1.54297053,1.33769575 2.51252629,3.29423937"></path>
            </g>
        </g>
    </g>
</svg>