<?xml version="1.0" encoding="UTF-8"?>
<svg width="16px" height="16px" viewBox="0 0 16 16" version="1.1" xmlns="http://www.w3.org/2000/svg" xmlns:xlink="http://www.w3.org/1999/xlink">
    <!-- Generator: Sketch 40.3 (33839) - http://www.bohemiancoding.com/sketch -->
    <title>file-excel</title>
    <desc>Created with Sketch.</desc>
    <defs></defs>
    <g id="Page-1" stroke="none" stroke-width="1" fill="none" fill-rule="evenodd">
        <g id="file-excel" fill="#217346">
            <path d="M15.702,2.067 L10.342,2.067 L10.342,3.059 L11.922,3.059 L11.922,4.629 L10.342,4.629 L10.342,5.134 L11.922,5.134 L11.922,6.704 L10.342,6.704 L10.342,7.218 L11.922,7.218 L11.922,8.7 L10.342,8.7 L10.342,9.295 L11.922,9.295 L11.922,10.785 L10.342,10.785 L10.342,11.38 L11.922,11.38 L11.922,12.878 L10.342,12.878 L10.342,13.97 L15.702,13.97 C15.786,13.945 15.857,13.846 15.914,13.672 C15.971,13.497 16,13.356 16,13.248 L16,2.248 C16,2.163 15.97,2.112 15.914,2.094 C15.857,2.076 15.786,2.067 15.702,2.067 L15.702,2.067 Z M15.007,12.877 L12.435,12.877 L12.435,11.38 L15.007,11.38 L15.007,12.878 L15.007,12.877 Z M15.007,10.784 L12.435,10.784 L12.435,9.294 L15.007,9.294 L15.007,10.784 L15.007,10.784 Z M15.007,8.699 L12.435,8.699 L12.435,7.22 L15.007,7.22 L15.007,8.7 L15.007,8.699 Z M15.007,6.704 L12.435,6.704 L12.435,5.134 L15.007,5.134 L15.007,6.704 L15.007,6.704 Z M15.007,4.628 L12.435,4.628 L12.435,3.06 L15.007,3.06 L15.007,4.63 L15.007,4.628 Z M0,1.822 L0,14.222 L9.44,15.855 L9.44,0.144 L0,1.824 L0,1.822 Z M5.595,11.2 C5.559,11.103 5.39,10.69 5.09,9.958 C4.79,9.228 4.61,8.802 4.557,8.681 L4.54,8.681 L3.528,11.083 L2.175,10.993 L3.78,7.995 L2.31,5 L3.69,4.927 L4.602,7.274 L4.62,7.274 L5.65,4.82 L7.075,4.73 L5.378,7.977 L7.128,11.289 L5.595,11.199 L5.595,11.2 Z" id="Shape"></path>
        </g>
    </g>
</svg>