<?xml version="1.0" encoding="UTF-8"?>
<svg width="16px" height="16px" viewBox="0 0 16 16" version="1.1" xmlns="http://www.w3.org/2000/svg" xmlns:xlink="http://www.w3.org/1999/xlink">
    <!-- Generator: Sketch 40.3 (33839) - http://www.bohemiancoding.com/sketch -->
    <title>file-powerpoint</title>
    <desc>Created with Sketch.</desc>
    <defs></defs>
    <g id="Page-1" stroke="none" stroke-width="1" fill="none" fill-rule="evenodd">
        <g id="file-powerpoint" fill="#D24726">
            <path d="M15.66,2.665 L9.964,2.665 L9.964,4.79 C10.307,4.53 10.719,4.398 11.201,4.398 L11.201,6.463 L13.249,6.463 C13.237,7.043 13.035,7.531 12.643,7.926 C12.251,8.321 11.765,8.524 11.183,8.536 C10.733,8.524 10.325,8.388 9.965,8.126 L9.965,9.546 L14.442,9.546 L14.442,10.243 L9.965,10.243 L9.965,11.105 L14.442,11.105 L14.442,11.793 L9.965,11.793 L9.965,13.353 L15.661,13.353 C15.888,13.353 16.001,13.233 16.001,12.995 L16.001,3.005 C16.001,2.778 15.888,2.665 15.661,2.665 L15.66,2.665 Z M11.523,6.123 L11.523,4.04 C12.103,4.053 12.59,4.255 12.983,4.647 C13.373,5.039 13.576,5.531 13.587,6.123 L11.523,6.123 L11.523,6.123 Z M5.505,6.158 C5.47,6.024 5.412,5.92 5.33,5.844 C5.25,5.769 5.142,5.714 5.008,5.679 C4.858,5.643 4.703,5.626 4.548,5.626 L4.068,5.643 L4.068,7.64 L4.085,7.64 C4.259,7.65 4.442,7.653 4.635,7.647 C4.825,7.641 5.005,7.592 5.175,7.499 C5.383,7.353 5.508,7.153 5.548,6.897 C5.588,6.642 5.574,6.395 5.505,6.157 L5.505,6.158 Z M0,2.038 L0,14.005 L9.128,15.582 L9.128,0.418 L0,2.038 L0,2.038 Z M6.81,7.43 C6.56,8.01 6.187,8.38 5.688,8.54 C5.188,8.7 4.648,8.762 4.068,8.727 L4.068,11.009 L2.866,10.869 L2.866,4.608 L4.773,4.503 C5.127,4.48 5.476,4.519 5.818,4.621 C6.161,4.723 6.432,4.928 6.633,5.236 C6.833,5.543 6.946,5.9 6.973,6.306 C6.998,6.713 6.945,7.088 6.811,7.431 L6.81,7.43 Z" id="Shape"></path>
        </g>
    </g>
</svg>