<svg xmlns="http://www.w3.org/2000/svg" width="1900" height="500" viewBox="0 0 1900 500">
  <g fill="#7CAEEB" fill-rule="evenodd">
    <path d="M751.955566 230.127441L707.453613 230.127441 707.453613 112.053711 675.03418 188.257324 644.528809 188.257324 612.109375 112.053711 612.109375 230.127441 570 230.127441 570 52 621.560059 52 661.037598 139.927246 700.395508 52 751.955566 52 751.955566 230.127441zM774.660645 230.127441L834.833984 52 883.642578 52 943.815918 230.127441 897.758789 230.127441 886.633301 193.760254 830.646973 193.760254 819.521484 230.127441 774.660645 230.127441zM876.82373 161.460449L858.640137 102.722656 840.456543 161.460449 876.82373 161.460449zM1122.63672 230.127441L1068.56445 230.127441 1019.99512 157.751953 1011.26221 169.954102 1011.26221 230.127441 966.520996 230.127441 966.520996 52 1011.26221 52 1011.26221 131.074707 1068.20557 52 1120.00488 52 1056.48193 134.663574 1122.63672 230.127441zM1142.11182 230.127441L1142.11182 52 1262.57812 52 1262.57812 85.9746094 1186.61377 85.9746094 1186.61377 117.197754 1256.59668 117.197754 1256.59668 151.172363 1186.61377 151.172363 1186.61377 196.152832 1262.57812 196.152832 1262.57812 230.127441 1142.11182 230.127441zM1462.57324 230.127441L1408.02246 230.127441 1358.37646 164.810059 1342.34619 164.810059 1342.34619 230.127441 1297.84424 230.127441 1297.84424 52 1369.50195 52C1379.39133 52 1388.00452 52.6180765 1395.3418 53.854248 1402.67907 55.0904196 1409.45798 57.6624154 1415.67871 61.5703125 1422.05895 65.6377156 1427.12319 70.8016451 1430.87158 77.0622559 1434.61997 83.3228666 1436.49414 91.2781093 1436.49414 100.928223 1436.49414 114.565986 1433.4237 125.631549 1427.28271 134.125244 1421.14173 142.618939 1412.9273 149.377905 1402.63916 154.402344L1462.57324 230.127441zM1390.55664 106.550781C1390.55664 102.084613 1389.69931 98.2365884 1387.98462 95.0065918 1386.26993 91.7765952 1383.4188 89.2843512 1379.43115 87.5297852 1376.6398 86.3334901 1373.52948 85.5758479 1370.1001 85.2568359 1366.67072 84.9378239 1362.404 84.7783203 1357.2998 84.7783203L1342.34619 84.7783203 1342.34619 132.749512 1355.14648 132.749512C1361.36722 132.749512 1366.65078 132.370691 1370.99731 131.613037 1375.34385 130.855384 1379.03237 129.240409 1382.06299 126.768066 1384.9341 124.534982 1387.06746 121.863297 1388.46313 118.75293 1389.85881 115.642563 1390.55664 111.57522 1390.55664 106.550781L1390.55664 106.550781zM722.646484 445.127441L679.580078 445.127441 610.913086 320.952637 610.913086 445.127441 570 445.127441 570 267 624.909668 267 681.733398 369.043457 681.733398 267 722.646484 267 722.646484 445.127441zM763.774414 445.127441L763.774414 267 884.240723 267 884.240723 300.974609 808.276367 300.974609 808.276367 332.197754 878.259277 332.197754 878.259277 366.172363 808.276367 366.172363 808.276367 411.152832 884.240723 411.152832 884.240723 445.127441 763.774414 445.127441zM953.720703 445.127441L953.720703 300.974609 901.083984 300.974609 901.083984 267 1051.09863 267 1051.09863 300.974609 998.461914 300.974609 998.461914 445.127441 953.720703 445.127441zM1304.32861 267L1259.22852 445.127441 1210.18066 445.127441 1181.58936 334.949219 1153.83545 445.127441 1104.7876 445.127441 1059.6875 267 1106.10352 267 1130.62744 386.509277 1160.53467 267 1204.91699 267 1233.26904 386.509277 1259.10889 267 1304.32861 267zM1493.55713 356.123535C1493.55713 384.914369 1485.86108 407.563882 1470.46875 424.072754 1455.07642 440.581626 1433.98207 448.835938 1407.18506 448.835938 1380.3083 448.835938 1359.21394 440.481936 1343.90137 423.773682 1328.58879 407.065428 1320.93262 384.515604 1320.93262 356.123535 1320.93262 327.492207 1328.58879 304.862632 1343.90137 288.234131 1359.21394 271.60563 1380.3083 263.291504 1407.18506 263.291504 1433.98207 263.291504 1455.07642 271.565754 1470.46875 288.114502 1485.86108 304.66325 1493.55713 327.332701 1493.55713 356.123535L1493.55713 356.123535zM1447.38037 356.003906C1447.38037 345.396757 1446.28378 336.364865 1444.09058 328.907959 1441.89737 321.451053 1438.96649 315.330102 1435.29785 310.544922 1431.46971 305.679989 1427.14317 302.190847 1422.31812 300.077393 1417.49306 297.963938 1412.48863 296.907227 1407.30469 296.907227 1401.80173 296.907227 1396.81724 297.884186 1392.35107 299.838135 1387.88491 301.792083 1383.57831 305.281225 1379.43115 310.305664 1375.76251 314.931338 1372.79176 321.072227 1370.5188 328.728516 1368.24584 336.384804 1367.10938 345.516386 1367.10938 356.123535 1367.10938 367.049697 1368.18602 376.121465 1370.33936 383.339111 1372.49269 390.556758 1375.4435 396.597957 1379.19189 401.462891 1383.02004 406.407577 1387.36651 409.936594 1392.23145 412.050049 1397.09638 414.163503 1402.12074 415.220215 1407.30469 415.220215 1412.56839 415.220215 1417.6725 414.083752 1422.61719 411.810791 1427.56187 409.53783 1431.8286 406.008813 1435.41748 401.223633 1439.24562 396.039688 1442.19644 389.998488 1444.27002 383.099854 1446.3436 376.201219 1447.38037 367.169327 1447.38037 356.003906L1447.38037 356.003906zM1689.72412 445.127441L1635.17334 445.127441 1585.52734 379.810059 1569.49707 379.810059 1569.49707 445.127441 1524.99512 445.127441 1524.99512 267 1596.65283 267C1606.5422 267 1615.1554 267.618077 1622.49268 268.854248 1629.82995 270.09042 1636.60886 272.662415 1642.82959 276.570312 1649.20983 280.637716 1654.27407 285.801645 1658.02246 292.062256 1661.77085 298.322867 1663.64502 306.278109 1663.64502 315.928223 1663.64502 329.565986 1660.57457 340.631549 1654.43359 349.125244 1648.29261 357.618939 1640.07818 364.377905 1629.79004 369.402344L1689.72412 445.127441zM1617.70752 321.550781C1617.70752 317.084613 1616.85019 313.236588 1615.1355 310.006592 1613.42081 306.776595 1610.56968 304.284351 1606.58203 302.529785 1603.79068 301.33349 1600.68036 300.575848 1597.25098 300.256836 1593.8216 299.937824 1589.55488 299.77832 1584.45068 299.77832L1569.49707 299.77832 1569.49707 347.749512 1582.29736 347.749512C1588.5181 347.749512 1593.80165 347.370691 1598.14819 346.613037 1602.49473 345.855384 1606.18325 344.240409 1609.21387 341.768066 1612.08498 339.534982 1614.21834 336.863297 1615.61401 333.75293 1617.00969 330.642563 1617.70752 326.57522 1617.70752 321.550781L1617.70752 321.550781zM1863.99902 445.127441L1809.92676 445.127441 1761.35742 372.751953 1752.62451 384.954102 1752.62451 445.127441 1707.8833 445.127441 1707.8833 267 1752.62451 267 1752.62451 346.074707 1809.56787 267 1861.36719 267 1797.84424 349.663574 1863.99902 445.127441zM30 125.078765L30 374.921235 250 500 470 374.921235 470 125.078765 250 0 30 125.078765zM356.323535 354.20425L304.315178 354.20425 304.315178 216.058387 266.427371 305.216355 230.776481 305.216355 192.888673 216.058387 192.888673 354.20425 143.676465 354.20425 143.676465 145.79575 203.933459 145.79575 250.069904 248.670329 296.066541 145.79575 356.323535 145.79575 356.323535 354.20425z"/>
  </g>
</svg>
