<?xml version="1.0" encoding="UTF-8"?>
<svg width="1900px" height="500px" viewBox="0 0 1900 500" version="1.1" xmlns="http://www.w3.org/2000/svg" xmlns:xlink="http://www.w3.org/1999/xlink">
    <!-- Generator: Sketch 41.2 (35397) - http://www.bohemiancoding.com/sketch -->
    <title>logo-network</title>
    <desc>Created with Sketch.</desc>
    <defs></defs>
    <g id="Page-1" stroke="none" stroke-width="1" fill="none" fill-rule="evenodd">
        <g id="logo-network" fill="#62A5F0">
            <path d="M751.955566,230.127441 L707.453613,230.127441 L707.453613,112.053711 L675.03418,188.257324 L644.528809,188.257324 L612.109375,112.053711 L612.109375,230.127441 L570,230.127441 L570,52 L621.560059,52 L661.037598,139.927246 L700.395508,52 L751.955566,52 L751.955566,230.127441 Z M774.660645,230.127441 L834.833984,52 L883.642578,52 L943.815918,230.127441 L897.758789,230.127441 L886.633301,193.760254 L830.646973,193.760254 L819.521484,230.127441 L774.660645,230.127441 Z M876.82373,161.460449 L858.640137,102.722656 L840.456543,161.460449 L876.82373,161.460449 Z M1122.63672,230.127441 L1068.56445,230.127441 L1019.99512,157.751953 L1011.26221,169.954102 L1011.26221,230.127441 L966.520996,230.127441 L966.520996,52 L1011.26221,52 L1011.26221,131.074707 L1068.20557,52 L1120.00488,52 L1056.48193,134.663574 L1122.63672,230.127441 Z M1142.11182,230.127441 L1142.11182,52 L1262.57812,52 L1262.57812,85.9746094 L1186.61377,85.9746094 L1186.61377,117.197754 L1256.59668,117.197754 L1256.59668,151.172363 L1186.61377,151.172363 L1186.61377,196.152832 L1262.57812,196.152832 L1262.57812,230.127441 L1142.11182,230.127441 Z M1462.57324,230.127441 L1408.02246,230.127441 L1358.37646,164.810059 L1342.34619,164.810059 L1342.34619,230.127441 L1297.84424,230.127441 L1297.84424,52 L1369.50195,52 C1379.39133,52 1388.00452,52.6180765 1395.3418,53.854248 C1402.67907,55.0904196 1409.45798,57.6624154 1415.67871,61.5703125 C1422.05895,65.6377156 1427.12319,70.8016451 1430.87158,77.0622559 C1434.61997,83.3228666 1436.49414,91.2781093 1436.49414,100.928223 C1436.49414,114.565986 1433.4237,125.631549 1427.28271,134.125244 C1421.14173,142.618939 1412.9273,149.377905 1402.63916,154.402344 L1462.57324,230.127441 Z M1390.55664,106.550781 C1390.55664,102.084613 1389.69931,98.2365884 1387.98462,95.0065918 C1386.26993,91.7765952 1383.4188,89.2843512 1379.43115,87.5297852 C1376.6398,86.3334901 1373.52948,85.5758479 1370.1001,85.2568359 C1366.67072,84.9378239 1362.404,84.7783203 1357.2998,84.7783203 L1342.34619,84.7783203 L1342.34619,132.749512 L1355.14648,132.749512 C1361.36722,132.749512 1366.65078,132.370691 1370.99731,131.613037 C1375.34385,130.855384 1379.03237,129.240409 1382.06299,126.768066 C1384.9341,124.534982 1387.06746,121.863297 1388.46313,118.75293 C1389.85881,115.642563 1390.55664,111.57522 1390.55664,106.550781 L1390.55664,106.550781 Z M722.646484,445.127441 L679.580078,445.127441 L610.913086,320.952637 L610.913086,445.127441 L570,445.127441 L570,267 L624.909668,267 L681.733398,369.043457 L681.733398,267 L722.646484,267 L722.646484,445.127441 Z M763.774414,445.127441 L763.774414,267 L884.240723,267 L884.240723,300.974609 L808.276367,300.974609 L808.276367,332.197754 L878.259277,332.197754 L878.259277,366.172363 L808.276367,366.172363 L808.276367,411.152832 L884.240723,411.152832 L884.240723,445.127441 L763.774414,445.127441 Z M953.720703,445.127441 L953.720703,300.974609 L901.083984,300.974609 L901.083984,267 L1051.09863,267 L1051.09863,300.974609 L998.461914,300.974609 L998.461914,445.127441 L953.720703,445.127441 Z M1304.32861,267 L1259.22852,445.127441 L1210.18066,445.127441 L1181.58936,334.949219 L1153.83545,445.127441 L1104.7876,445.127441 L1059.6875,267 L1106.10352,267 L1130.62744,386.509277 L1160.53467,267 L1204.91699,267 L1233.26904,386.509277 L1259.10889,267 L1304.32861,267 Z M1493.55713,356.123535 C1493.55713,384.914369 1485.86108,407.563882 1470.46875,424.072754 C1455.07642,440.581626 1433.98207,448.835938 1407.18506,448.835938 C1380.3083,448.835938 1359.21394,440.481936 1343.90137,423.773682 C1328.58879,407.065428 1320.93262,384.515604 1320.93262,356.123535 C1320.93262,327.492207 1328.58879,304.862632 1343.90137,288.234131 C1359.21394,271.60563 1380.3083,263.291504 1407.18506,263.291504 C1433.98207,263.291504 1455.07642,271.565754 1470.46875,288.114502 C1485.86108,304.66325 1493.55713,327.332701 1493.55713,356.123535 L1493.55713,356.123535 Z M1447.38037,356.003906 C1447.38037,345.396757 1446.28378,336.364865 1444.09058,328.907959 C1441.89737,321.451053 1438.96649,315.330102 1435.29785,310.544922 C1431.46971,305.679989 1427.14317,302.190847 1422.31812,300.077393 C1417.49306,297.963938 1412.48863,296.907227 1407.30469,296.907227 C1401.80173,296.907227 1396.81724,297.884186 1392.35107,299.838135 C1387.88491,301.792083 1383.57831,305.281225 1379.43115,310.305664 C1375.76251,314.931338 1372.79176,321.072227 1370.5188,328.728516 C1368.24584,336.384804 1367.10938,345.516386 1367.10938,356.123535 C1367.10938,367.049697 1368.18602,376.121465 1370.33936,383.339111 C1372.49269,390.556758 1375.4435,396.597957 1379.19189,401.462891 C1383.02004,406.407577 1387.36651,409.936594 1392.23145,412.050049 C1397.09638,414.163503 1402.12074,415.220215 1407.30469,415.220215 C1412.56839,415.220215 1417.6725,414.083752 1422.61719,411.810791 C1427.56187,409.53783 1431.8286,406.008813 1435.41748,401.223633 C1439.24562,396.039688 1442.19644,389.998488 1444.27002,383.099854 C1446.3436,376.201219 1447.38037,367.169327 1447.38037,356.003906 L1447.38037,356.003906 Z M1689.72412,445.127441 L1635.17334,445.127441 L1585.52734,379.810059 L1569.49707,379.810059 L1569.49707,445.127441 L1524.99512,445.127441 L1524.99512,267 L1596.65283,267 C1606.5422,267 1615.1554,267.618077 1622.49268,268.854248 C1629.82995,270.09042 1636.60886,272.662415 1642.82959,276.570312 C1649.20983,280.637716 1654.27407,285.801645 1658.02246,292.062256 C1661.77085,298.322867 1663.64502,306.278109 1663.64502,315.928223 C1663.64502,329.565986 1660.57457,340.631549 1654.43359,349.125244 C1648.29261,357.618939 1640.07818,364.377905 1629.79004,369.402344 L1689.72412,445.127441 Z M1617.70752,321.550781 C1617.70752,317.084613 1616.85019,313.236588 1615.1355,310.006592 C1613.42081,306.776595 1610.56968,304.284351 1606.58203,302.529785 C1603.79068,301.33349 1600.68036,300.575848 1597.25098,300.256836 C1593.8216,299.937824 1589.55488,299.77832 1584.45068,299.77832 L1569.49707,299.77832 L1569.49707,347.749512 L1582.29736,347.749512 C1588.5181,347.749512 1593.80165,347.370691 1598.14819,346.613037 C1602.49473,345.855384 1606.18325,344.240409 1609.21387,341.768066 C1612.08498,339.534982 1614.21834,336.863297 1615.61401,333.75293 C1617.00969,330.642563 1617.70752,326.57522 1617.70752,321.550781 L1617.70752,321.550781 Z M1863.99902,445.127441 L1809.92676,445.127441 L1761.35742,372.751953 L1752.62451,384.954102 L1752.62451,445.127441 L1707.8833,445.127441 L1707.8833,267 L1752.62451,267 L1752.62451,346.074707 L1809.56787,267 L1861.36719,267 L1797.84424,349.663574 L1863.99902,445.127441 Z" id="MAKER"></path>
            <path d="M30,125.078765 L30,374.921235 L250,500 L470,374.921235 L470,125.078765 L250,0 L30,125.078765 Z M356.323535,354.20425 L304.315178,354.20425 L304.315178,216.058387 L266.427371,305.216355 L230.776481,305.216355 L192.888673,216.058387 L192.888673,354.20425 L143.676465,354.20425 L143.676465,145.79575 L203.933459,145.79575 L250.069904,248.670329 L296.066541,145.79575 L356.323535,145.79575 L356.323535,354.20425 Z" id="M"></path>
        </g>
    </g>
</svg>