<?xml version="1.0" encoding="UTF-8" standalone="no"?>
<svg width="1900px" height="500px" viewBox="0 0 1900 500" version="1.1" xmlns="http://www.w3.org/2000/svg" xmlns:xlink="http://www.w3.org/1999/xlink" xmlns:sketch="http://www.bohemiancoding.com/sketch/ns">
    <!-- Generator: Sketch 3.3.2 (12043) - http://www.bohemiancoding.com/sketch -->
    <title>logo-white-2</title>
    <desc>Created with Sketch.</desc>
    <defs></defs>
    <g id="Page-1" stroke="none" stroke-width="1" fill="none" fill-rule="evenodd" sketch:type="MSPage">
        <g id="logo-white-2" sketch:type="MSArtboardGroup" fill="#FFFFFF">
            <path d="M29.8554078,125.078765 L29.8554078,374.921235 L250,500 L470.144592,374.921235 L470.144592,125.078765 L250,0 L29.8554078,125.078765 Z M356.393415,354.20425 L304.350876,354.20425 L304.350876,216.058387 L266.438167,305.216355 L230.763847,305.216355 L192.851138,216.058387 L192.851138,354.20425 L143.606585,354.20425 L143.606585,145.79575 L203.903182,145.79575 L250.06995,248.670329 L296.096818,145.79575 L356.393415,145.79575 L356.393415,354.20425 Z" id="Logo" sketch:type="MSShapeGroup"></path>
            <g id="Maker-Network" sketch:type="MSLayerGroup" transform="translate(571.000000, 50.000000)">
                <path d="M153.081562,395 L110.352051,395 L42.22222,271.669922 L42.22222,395 L1.62918455,395 L1.62918455,218.08431 L56.1093111,218.08431 L112.488527,319.433594 L112.488527,218.08431 L153.081562,218.08431 L153.081562,395 Z M195.586695,395 L195.586695,218.08431 L315.110632,218.08431 L315.110632,251.827799 L239.740523,251.827799 L239.740523,282.838542 L309.175978,282.838542 L309.175978,316.582031 L239.740523,316.582031 L239.740523,361.25651 L315.110632,361.25651 L315.110632,395 L195.586695,395 Z M385.746026,395 L385.746026,251.827799 L333.521068,251.827799 L333.521068,218.08431 L482.362198,218.08431 L482.362198,251.827799 L430.13724,251.827799 L430.13724,395 L385.746026,395 Z M735.310172,218.08431 L690.562879,395 L641.898713,395 L613.531066,285.571289 L585.99427,395 L537.330104,395 L492.582811,218.08431 L538.635728,218.08431 L562.967811,336.780599 L592.641083,218.08431 L636.676218,218.08431 L664.806479,336.780599 L690.444186,218.08431 L735.310172,218.08431 Z M924.757345,306.601562 C924.757345,335.196541 917.121499,357.691975 901.849579,374.088542 C886.577659,390.485108 865.648321,398.683268 839.060937,398.683268 C812.394423,398.683268 791.465085,390.386096 776.272294,373.791504 C761.079503,357.196911 753.483222,334.800488 753.483222,306.601562 C753.483222,278.165005 761.079503,255.689373 776.272294,239.173991 C791.465085,222.658609 812.394423,214.401042 839.060937,214.401042 C865.648321,214.401042 886.577659,222.619004 901.849579,239.055176 C917.121499,255.491347 924.757345,278.006584 924.757345,306.601562 L924.757345,306.601562 Z M878.941814,306.482747 C878.941814,295.947755 877.853805,286.977305 875.677754,279.571126 C873.501703,272.164948 870.593751,266.085636 866.953812,261.333008 C863.155614,256.501169 858.862924,253.035764 854.075612,250.936686 C849.2883,248.837609 844.323023,247.788086 839.17963,247.788086 C833.719721,247.788086 828.774225,248.7584 824.342994,250.699056 C819.911763,252.639712 815.638855,256.105118 811.524141,261.095378 C807.884201,265.689585 804.936686,271.788699 802.681506,279.392904 C800.426326,286.997108 799.298753,296.066571 799.298753,306.601562 C799.298753,317.453396 800.36698,326.463452 802.503466,333.631999 C804.639952,340.800546 807.567686,346.800649 811.286755,351.632487 C815.084952,356.543536 819.397425,360.048546 824.224301,362.147624 C829.051177,364.246701 834.036237,365.296224 839.17963,365.296224 C844.402152,365.296224 849.466339,364.167492 854.372345,361.909993 C859.27835,359.652495 863.511695,356.147485 867.072505,351.394857 C870.870703,346.246177 873.798436,340.246074 875.855793,333.394368 C877.913151,326.542663 878.941814,317.572213 878.941814,306.482747 L878.941814,306.482747 Z M1121.08872,395 L1066.96467,395 L1017.70704,330.126953 L1001.80217,330.126953 L1001.80217,395 L957.648337,395 L957.648337,218.08431 L1028.7455,218.08431 C1038.55751,218.08431 1047.10332,218.698182 1054.3832,219.925944 C1061.66308,221.153706 1068.38896,223.708205 1074.56103,227.589518 C1080.89136,231.629252 1085.91598,236.758053 1089.63505,242.976074 C1093.35412,249.194096 1095.21362,257.095221 1095.21362,266.679688 C1095.21362,280.224677 1092.1672,291.214964 1086.07426,299.650879 C1079.98131,308.086793 1071.83114,314.79978 1061.62348,319.790039 L1121.08872,395 Z M1049.63548,272.263997 C1049.63548,267.828211 1048.78485,264.006364 1047.08358,260.79834 C1045.3823,257.590316 1042.55348,255.115026 1038.59702,253.372396 C1035.8275,252.184239 1032.74151,251.431751 1029.33896,251.114909 C1025.93641,250.798067 1021.70306,250.639648 1016.6388,250.639648 L1001.80217,250.639648 L1001.80217,298.284505 L1014.50233,298.284505 C1020.6744,298.284505 1025.91662,297.908261 1030.22916,297.155762 C1034.5417,296.403262 1038.20136,294.799274 1041.20827,292.34375 C1044.05692,290.125857 1046.17359,287.472346 1047.55835,284.383138 C1048.94311,281.29393 1049.63548,277.254257 1049.63548,272.263997 L1049.63548,272.263997 Z M1295.69925,395 L1242.04998,395 L1193.86059,323.116862 L1185.19599,335.236003 L1185.19599,395 L1140.80478,395 L1140.80478,218.08431 L1185.19599,218.08431 L1185.19599,296.621094 L1241.6939,218.08431 L1293.08801,218.08431 L1230.06198,300.185547 L1295.69925,395 Z" id="NETWORK" sketch:type="MSShapeGroup"></path>
                <path d="M182.161368,178.333333 L138.00754,178.333333 L138.00754,61.0628255 L105.841714,136.748047 L75.5749772,136.748047 L43.4091509,61.0628255 L43.4091509,178.333333 L1.62918455,178.333333 L1.62918455,1.41764323 L52.7859047,1.41764323 L91.9546231,88.7467448 L131.004648,1.41764323 L182.161368,1.41764323 L182.161368,178.333333 Z M206.387766,178.333333 L266.090388,1.41764323 L314.517167,1.41764323 L374.219789,178.333333 L328.522951,178.333333 L317.484494,142.213542 L261.93613,142.213542 L250.897673,178.333333 L206.387766,178.333333 Z M307.751661,110.133464 L289.710312,51.7952474 L271.668963,110.133464 L307.751661,110.133464 Z M553.340664,178.333333 L499.691389,178.333333 L451.501996,106.450195 L442.8374,118.569336 L442.8374,178.333333 L398.446186,178.333333 L398.446186,1.41764323 L442.8374,1.41764323 L442.8374,79.9544271 L499.335309,1.41764323 L550.729416,1.41764323 L487.703387,83.5188802 L553.340664,178.333333 Z M574.362347,178.333333 L574.362347,1.41764323 L693.886285,1.41764323 L693.886285,35.1611328 L618.516175,35.1611328 L618.516175,66.171875 L687.951631,66.171875 L687.951631,99.9153646 L618.516175,99.9153646 L618.516175,144.589844 L693.886285,144.589844 L693.886285,178.333333 L574.362347,178.333333 Z M894.015836,178.333333 L839.891788,178.333333 L790.634158,113.460286 L774.729284,113.460286 L774.729284,178.333333 L730.575456,178.333333 L730.575456,1.41764323 L801.672615,1.41764323 C811.484625,1.41764323 820.030442,2.03151513 827.310321,3.25927734 C834.5902,4.48703956 841.316075,7.04153875 847.488146,10.9228516 C853.818475,14.9625853 858.843099,20.091386 862.562168,26.3094076 C866.281236,32.5274291 868.140743,40.4285545 868.140743,50.0130208 C868.140743,63.5580104 865.094317,74.5482977 859.001375,82.9842122 C852.908433,91.4201268 844.758256,98.1331131 834.550599,103.123372 L894.015836,178.333333 Z M822.562598,55.5973307 C822.562598,51.1615447 821.711973,47.339697 820.010696,44.1316732 C818.30942,40.9236493 815.480597,38.4483594 811.524141,36.7057292 C808.754622,35.5175722 805.668632,34.765084 802.26608,34.4482422 C798.863528,34.1314003 794.630184,33.9729818 789.56592,33.9729818 L774.729284,33.9729818 L774.729284,81.6178385 L787.429444,81.6178385 C793.601516,81.6178385 798.843741,81.2415945 803.156278,80.4890951 C807.468815,79.7365956 811.128482,78.1326078 814.135389,75.6770833 C816.984037,73.4591903 819.100709,70.8056795 820.485469,67.7164714 C821.870228,64.6272632 822.562598,60.5875901 822.562598,55.5973307 L822.562598,55.5973307 Z" id="MAKER" sketch:type="MSShapeGroup"></path>
            </g>
        </g>
    </g>
</svg>