<svg xmlns="http://www.w3.org/2000/svg" width="865" height="250" viewBox="0 0 865 250" xmlns:xlink="http://www.w3.org/1999/xlink">
  <defs>
    <path id="a" d="M4.35785213,0.547809241 C3.80532976,0.548102285 3.22038581,0.971843967 3.05753769,1.51136622 C3.05753769,1.51136622 -10.9506836,41.9746094 32.7446289,41.9746094 C64.1230469,41.9746094 56.8222656,22.6435547 65.2675781,22.6435547 C73.7128906,22.6435547 65.2675781,41.9746094 97.8217773,41.9746094 C138.807129,41.9746094 127.871892,1.44698063 127.871892,1.44698063 C127.745515,0.914269538 127.19303,0.482660563 126.642636,0.482952478 L4.35785213,0.547809241 Z"/>
    <mask id="b" width="130.276" height="43.492" x="-1" y="-1">
      <rect width="130.276" height="43.492" x="-.081" y="-.517" fill="white"/>
      <use fill="black" xlink:href="#a"/>
    </mask>
  </defs>
  <g fill="none" fill-rule="evenodd">
    <path fill="#000000" d="M95.0288737,4.01192621 C102.744914,-1.33617251 115.251808,-1.33844484 122.971126,4.01192621 L209.784957,64.1838458 C214.322,67.3285359 218,74.35723 218,79.882199 L218,171.50041 C218,177.025681 214.295227,184.023065 209.729025,187.126876 L123.054517,246.042651 C115.292422,251.318826 102.708432,251.319407 94.9454827,246.042651 L8.27097471,187.126876 C3.70304151,184.021888 0,177.025379 0,171.50041 L0,79.882199 C0,74.356928 3.6734228,67.3317085 8.21504314,64.1838458 L95.0288737,4.01192621 Z"/>
    <g transform="translate(41 54)">
      <g transform="translate(2 84)">
        <use fill="#FFFFFF" xlink:href="#a"/>
        <use stroke="#262223" stroke-width="2" mask="url(#b)" stroke-linecap="round" stroke-linejoin="round" xlink:href="#a"/>
        <path stroke="#4E4D4D" stroke-width=".5" d="M6.11960912,4.51505215 C6.11960912,4.51505215 -3.41796875,38.2114258 33.8632813,38.2114258 C63.5454382,38.2114258 48.6665039,19.7078525 64.6830133,19.7078525 C80.6995226,19.7078525 66.2300365,37.6293945 97.0244141,37.6293945 C135.794171,37.6293945 123.686594,4.46972656 123.686594,4.46972656 L6.11960912,4.51505215 Z" stroke-linejoin="round" stroke-dasharray="10 1"/>
      </g>
      <path stroke="#FAFE72" stroke-width="4" d="M2.53417969,79.0410156 C-7.27880859,52.5810547 19.6435547,45.0654297 5.42285156,28.9575195 C12.3398437,27.5029297 25.6503906,49.0507812 25.6503906,49.0507812 C35.6928711,39.2226562 30.9515112,21.5949832 30.9515112,21.5949832 C30.8291631,21.0730295 30.9607649,21.0308944 31.2538513,21.5100336 C31.2538513,21.5100336 40.4208237,36.7971772 41.4453125,33.9145508 C52.4248047,19.2211914 44.1103516,4.14697266 36.5136719,2 C66.4064509,-7.70849609 71.6083984,32.2836914 76.0986328,37.440918 C85.3398438,28.949707 74.675293,11.9047852 74.675293,11.9047852 C97.5146484,9.38720703 100.624077,38.7739411 100.624077,38.7739411 C100.698746,39.3208237 100.979259,39.3726013 101.244571,38.9003561 L109.543027,24.1294285 C109.811047,23.652363 110.032583,23.7083454 110.043371,24.2639886 C110.043371,24.2639886 110.02832,44.296875 116.744629,49.7373047 C121.397949,44.296875 119.059558,35.4947332 119.059558,35.4947332 C118.942528,34.9558744 119.157083,34.8322043 119.546531,35.2415556 C119.546531,35.2415556 139.774414,54.9086914 132.789062,79.0410156" stroke-linecap="round" stroke-linejoin="round"/>
    </g>
    <g transform="translate(247 58)">
      <path fill="#272727" d="M462.062,79.095 L478.554,79.095 L478.554,117 L417.374,117 L417.374,23.9 L435.595,23.9 L435.595,100.774 L462.062,100.774 L462.062,79.095 Z M532,99.485 L508.383,99.485 L502.959,117 L487.478,117 L513.016,37.9 L528.497,37.9 L553.922,117 L537.65,117 L532,99.485 Z M511.999,87.055 L528.949,87.055 L520.926,60.613 L519.909,60.613 L511.999,87.055 Z M615.829,56.319 C615.829,58.2776765 615.584169,60.2363235 615.0945,62.195 C614.604831,64.1536765 613.795006,65.9428252 612.665,67.5625 C611.534994,69.1821748 610.066009,70.6134938 608.258,71.8565 C606.449991,73.0995062 604.265346,74.0223303 601.704,74.625 L601.704,75.303 C603.964011,75.6796686 606.11099,76.3199955 608.145,77.224 C610.17901,78.1280045 611.949326,79.3709921 613.456,80.953 C614.962674,82.5350079 616.149162,84.4559887 617.0155,86.716 C617.881838,88.9760113 618.315,91.6503179 618.315,94.739 C618.315,98.8070203 617.448675,102.328818 615.716,105.3045 C613.983325,108.280182 611.666848,110.709657 608.7665,112.593 C605.866152,114.476343 602.570352,115.869995 598.879,116.774 C595.187648,117.678005 591.383353,118.13 587.466,118.13 L582.5505,118.13 C580.554157,118.13 578.407178,118.073501 576.1095,117.9605 C573.811822,117.847499 571.476512,117.678001 569.1035,117.452 C566.730488,117.225999 564.564676,116.887002 562.606,116.435 L562.606,38.465 C564.03734,38.2389989 565.675824,38.0130011 567.5215,37.787 C569.367176,37.5609989 571.344656,37.3726674 573.454,37.222 C575.563344,37.0713326 577.729156,36.9583337 579.9515,36.883 C582.173844,36.8076663 584.377322,36.77 586.562,36.77 C590.253352,36.77 593.850482,37.0524972 597.3535,37.6175 C600.856518,38.1825028 603.98282,39.1806595 606.7325,40.612 C609.48218,42.0433405 611.685658,44.0396539 613.343,46.601 C615.000342,49.1623461 615.829,52.4016471 615.829,56.319 Z M587.579,105.361 C589.462343,105.361 591.289158,105.135002 593.0595,104.683 C594.829842,104.230998 596.392993,103.534171 597.749,102.5925 C599.105007,101.650829 600.197329,100.46434 601.026,99.033 C601.854671,97.6016595 602.269,95.9066765 602.269,93.948 C602.269,91.4619876 601.779338,89.5033405 600.8,88.072 C599.820662,86.6406595 598.540008,85.529504 596.958,84.7385 C595.375992,83.947496 593.605676,83.4390011 591.647,83.213 C589.688324,82.9869989 587.729676,82.874 585.771,82.874 L577.522,82.874 L577.522,104.683 C577.898669,104.833667 578.501329,104.946666 579.33,105.022 C580.158671,105.097334 581.043829,105.153833 581.9855,105.1915 C582.927171,105.229167 583.906495,105.266833 584.9235,105.3045 C585.940505,105.342167 586.825663,105.361 587.579,105.361 Z M582.494,71.122 C583.548672,71.122 584.772826,71.0843337 586.1665,71.009 C587.560174,70.9336663 588.708995,70.8206674 589.613,70.67 C592.475681,69.7659955 594.942823,68.410009 597.0145,66.602 C599.086177,64.793991 600.122,62.4210147 600.122,59.483 C600.122,57.5243235 599.745337,55.9046731 598.992,54.624 C598.238663,53.3433269 597.240506,52.3263371 595.9975,51.573 C594.754494,50.8196629 593.342008,50.2923348 591.76,49.991 C590.177992,49.6896652 588.520675,49.539 586.788,49.539 C584.829324,49.539 583.021342,49.5766663 581.364,49.652 C579.706658,49.7273337 578.426005,49.8403326 577.522,49.991 L577.522,71.122 L582.494,71.122 Z"/>
      <path fill="#2D2D2D" d="M311.145,91.123 L323.575,91.123 L323.575,102.31 L324.253,102.536 C325.985675,103.289337 327.887823,103.910831 329.9595,104.4005 C332.031177,104.890169 334.234655,105.135 336.57,105.135 C340.788688,105.135 344.065655,104.287508 346.401,102.5925 C348.736345,100.897492 349.904,98.618681 349.904,95.756 C349.904,93.1946539 348.94351,91.1230079 347.0225,89.541 C345.10149,87.9589921 342.728514,86.5653394 339.9035,85.36 C337.078486,84.1546606 333.98985,82.9493394 330.6375,81.744 C327.28515,80.5386606 324.196514,79.0131759 321.3715,77.1675 C318.546486,75.3218241 316.17351,73.0053473 314.2525,70.218 C312.33149,67.4306527 311.371,63.8146889 311.371,59.37 C311.371,55.9799831 312.03016,52.8725141 313.3485,50.0475 C314.66684,47.2224859 316.512488,44.7930102 318.8855,42.759 C321.258512,40.7249898 324.102317,39.1430056 327.417,38.013 C330.731683,36.8829944 334.42298,36.318 338.491,36.318 C343.086356,36.318 347.606311,36.7323292 352.051,37.561 C356.495689,38.3896708 360.03632,39.5196595 362.673,40.951 L362.673,63.89 L350.243,63.89 L350.243,51.347 C350.016999,51.347 349.791001,51.3093337 349.565,51.234 C347.907658,50.7819977 346.11851,50.424168 344.1975,50.1605 C342.27649,49.896832 340.374343,49.765 338.491,49.765 C334.874982,49.765 332.031177,50.4806595 329.9595,51.912 C327.887823,53.3433405 326.852,55.2643213 326.852,57.675 C326.852,60.1610124 327.81249,62.1949921 329.7335,63.777 C331.65451,65.3590079 334.027486,66.7903269 336.8525,68.071 C339.677514,69.3516731 342.76615,70.6323269 346.1185,71.913 C349.47085,73.1936731 352.559486,74.7568241 355.3845,76.6025 C358.209514,78.4481759 360.58249,80.7646527 362.5035,83.552 C364.42451,86.3393473 365.385,89.8423122 365.385,94.061 C365.385,98.1290203 364.631674,101.688485 363.125,104.7395 C361.618326,107.790515 359.509014,110.351823 356.797,112.4235 C354.084986,114.495177 350.883352,116.039495 347.192,117.0565 C343.500648,118.073505 339.508021,118.582 335.214,118.582 C332.351319,118.582 329.695846,118.356002 327.2475,117.904 C324.799154,117.451998 322.539177,116.887003 320.4675,116.209 C318.395823,115.530997 316.569008,114.815337 314.987,114.062 C313.404992,113.308663 312.124338,112.668336 311.145,112.141 L311.145,91.123 Z M301.271043,5.44795854 C301.337895,4.34277381 302.258399,3.24534409 303.338827,2.9940402 L315.991739,0.0510161219 C317.066893,-0.199060826 317.893199,0.495140182 317.793815,1.58845479 C317.793815,1.58845479 317.703613,21.5191102 296.974121,35.4112 C295.64563,35.4112 295,34.4958496 295,33.9922547 C300.76123,20.4141297 301.271043,5.44795854 301.271043,5.44795854 Z M218.31,23.9 L279.357,23.9 L279.357,40.126 L236.531,40.126 L236.531,61.805 L276.032,61.805 L276.032,78.031 L236.531,78.031 L236.531,100.774 L280.022,100.774 L280.022,117 L218.31,117 L218.31,23.9 Z"/>
      <path fill="#272727" d="M0.65,22.9 C1.44800399,22.8113329 2.84449003,22.6783342 4.8395,22.501 C6.83450998,22.3236658 9.09548737,22.1685007 11.6225,22.0355 C14.1495126,21.9024993 16.7651531,21.7916671 19.4695,21.703 C22.1738469,21.6143329 24.5899894,21.57 26.718,21.57 C34.9640412,21.57 41.7913063,22.766988 47.2,25.161 C52.6086937,27.555012 56.8868176,30.8578123 60.0345,35.0695 C63.1821824,39.2811877 65.3766605,44.2464714 66.618,49.9655 C67.8593395,55.6845286 68.48,61.9132996 68.48,68.652 C68.48,74.7700306 67.8593395,80.7549707 66.618,86.607 C65.3766605,92.4590293 63.1378495,97.6681438 59.9015,102.2345 C56.6651505,106.800856 52.1875286,110.480486 46.4685,113.2735 C40.7494714,116.066514 33.4123781,117.463 24.457,117.463 C23.0383262,117.463 21.2206778,117.418667 19.004,117.33 C16.7873223,117.241333 14.5263449,117.130501 12.221,116.9975 C9.91565514,116.864499 7.69901064,116.731501 5.571,116.5985 C3.44298936,116.465499 1.80267243,116.310334 0.65,116.133 L0.65,22.9 Z M27.383,37.796 C25.6983249,37.796 24.058008,37.8624993 22.462,37.9955 C20.865992,38.1285007 19.669004,38.2393329 18.871,38.328 L18.871,100.705 C19.2256684,100.793667 19.7576631,100.860166 20.467,100.9045 C21.1763369,100.948834 21.9078296,100.993166 22.6615,101.0375 C23.4151704,101.081834 24.1466631,101.126166 24.856,101.1705 C25.5653369,101.214834 26.1416645,101.237 26.585,101.237 C31.7276924,101.237 35.8284847,100.283843 38.8875,98.3775 C41.9465153,96.4711571 44.2296591,93.9663488 45.737,90.863 C47.2443409,87.7596511 48.2196645,84.2573528 48.663,80.356 C49.1063356,76.4546472 49.328,72.5533528 49.328,68.652 C49.328,65.2826498 49.128502,61.7803515 48.7295,58.145 C48.330498,54.5096485 47.3995073,51.1846817 45.9365,48.17 C44.4734927,45.1553183 42.2790146,42.6726764 39.353,40.722 C36.4269854,38.7713236 32.4370253,37.796 27.383,37.796 Z M80.056,37.691 C81.7886753,37.3896652 83.6531567,37.107168 85.6495,36.8435 C87.6458433,36.579832 89.6421567,36.3726674 91.6385,36.222 C93.6348433,36.0713326 95.5746573,35.9583337 97.458,35.883 C99.3413428,35.8076663 101.073992,35.77 102.656,35.77 C106.347352,35.77 109.982149,36.1278298 113.5605,36.8435 C117.138851,37.5591702 120.340486,38.7833247 123.1655,40.516 C125.990514,42.2486753 128.250492,44.5839853 129.9455,47.522 C131.640508,50.4600147 132.488,54.1136448 132.488,58.483 C132.488,61.7223495 132.167837,64.5284881 131.5275,66.9015 C130.887163,69.2745119 130.002006,71.364991 128.872,73.173 C127.741994,74.981009 126.367175,76.5441601 124.7475,77.8625 C123.127825,79.1808399 121.376343,80.3673281 119.493,81.422 L138.59,116 L120.736,116 L104.803,85.038 L95.537,85.038 L95.537,116 L80.056,116 L80.056,37.691 Z M103.786,49.556 C102.203992,49.556 100.640841,49.5936663 99.0965,49.669 C97.5521589,49.7443337 96.3656708,49.8949989 95.537,50.121 L95.537,73.06 L101.639,73.06 C105.933021,73.06 109.435986,72.0806765 112.148,70.122 C114.860014,68.1633235 116.216,64.9240226 116.216,60.404 C116.216,57.013983 115.161344,54.3585096 113.052,52.4375 C110.942656,50.5164904 107.85402,49.556 103.786,49.556 Z M142.196,107.156 C142.196,104.029318 143.178657,101.550342 145.144,99.719 C147.109343,97.8876575 149.699984,96.972 152.916,96.972 C156.310684,96.972 158.990657,97.8876575 160.956,99.719 C162.921343,101.550342 163.904,104.029318 163.904,107.156 C163.904,110.282682 162.921343,112.783991 160.956,114.66 C158.990657,116.536009 156.310684,117.474 152.916,117.474 C149.699984,117.474 147.109343,116.536009 145.144,114.66 C143.178657,112.783991 142.196,110.282682 142.196,107.156 Z"/>
    </g>
  </g>
</svg>
