<?xml version="1.0" encoding="UTF-8" standalone="no"?>
<svg width="1750px" height="500px" viewBox="0 0 1750 500" version="1.1" xmlns="http://www.w3.org/2000/svg" xmlns:xlink="http://www.w3.org/1999/xlink">
    <!-- Generator: Sketch 3.8.1 (29687) - http://www.bohemiancoding.com/sketch -->
    <title>logo-network-summer-white</title>
    <desc>Created with Sketch.</desc>
    <defs></defs>
    <g id="Page-1" stroke="none" stroke-width="1" fill="none" fill-rule="evenodd">
        <g id="logo-network-summer-white" fill="#FFFFFF">
            <path d="M30,125.078765 L30,374.921235 L250,500 L470,374.921235 L470,125.078765 L250,0 L30,125.078765 Z M356.323535,354.20425 L304.315178,354.20425 L304.315178,216.058387 L266.427371,305.216355 L230.776481,305.216355 L192.888673,216.058387 L192.888673,354.20425 L143.676465,354.20425 L143.676465,145.79575 L203.933459,145.79575 L250.069904,248.670329 L296.066541,145.79575 L356.323535,145.79575 L356.323535,354.20425 Z" id="maker-network-logo-white"></path>
            <path d="M761.645508,230.127441 L717.143555,230.127441 L717.143555,112.053711 L684.724121,188.257324 L654.21875,188.257324 L621.799316,112.053711 L621.799316,230.127441 L579.689941,230.127441 L579.689941,52 L631.25,52 L670.727539,139.927246 L710.085449,52 L761.645508,52 L761.645508,230.127441 Z M784.350586,230.127441 L844.523926,52 L893.33252,52 L953.505859,230.127441 L907.44873,230.127441 L896.323242,193.760254 L840.336914,193.760254 L829.211426,230.127441 L784.350586,230.127441 Z M886.513672,161.460449 L868.330078,102.722656 L850.146484,161.460449 L886.513672,161.460449 Z M1132.32666,230.127441 L1078.25439,230.127441 L1029.68506,157.751953 L1020.95215,169.954102 L1020.95215,230.127441 L976.210938,230.127441 L976.210938,52 L1020.95215,52 L1020.95215,131.074707 L1077.89551,52 L1129.69482,52 L1066.17188,134.663574 L1132.32666,230.127441 Z M1151.80176,230.127441 L1151.80176,52 L1272.26807,52 L1272.26807,85.9746094 L1196.30371,85.9746094 L1196.30371,117.197754 L1266.28662,117.197754 L1266.28662,151.172363 L1196.30371,151.172363 L1196.30371,196.152832 L1272.26807,196.152832 L1272.26807,230.127441 L1151.80176,230.127441 Z M1472.26318,230.127441 L1417.7124,230.127441 L1368.06641,164.810059 L1352.03613,164.810059 L1352.03613,230.127441 L1307.53418,230.127441 L1307.53418,52 L1379.19189,52 C1389.08127,52 1397.69446,52.6180765 1405.03174,53.854248 C1412.36901,55.0904196 1419.14792,57.6624154 1425.36865,61.5703125 C1431.74889,65.6377156 1436.81313,70.8016451 1440.56152,77.0622559 C1444.30991,83.3228666 1446.18408,91.2781093 1446.18408,100.928223 C1446.18408,114.565986 1443.11364,125.631549 1436.97266,134.125244 C1430.83168,142.618939 1422.61724,149.377905 1412.3291,154.402344 L1472.26318,230.127441 Z M1400.24658,106.550781 C1400.24658,102.084613 1399.38925,98.2365884 1397.67456,95.0065918 C1395.95987,91.7765952 1393.10874,89.2843512 1389.12109,87.5297852 C1386.32974,86.3334901 1383.21942,85.5758479 1379.79004,85.2568359 C1376.36066,84.9378239 1372.09394,84.7783203 1366.98975,84.7783203 L1352.03613,84.7783203 L1352.03613,132.749512 L1364.83643,132.749512 C1371.05716,132.749512 1376.34072,132.370691 1380.68726,131.613037 C1385.03379,130.855384 1388.72232,129.240409 1391.75293,126.768066 C1394.62404,124.534982 1396.7574,121.863297 1398.15308,118.75293 C1399.54875,115.642563 1400.24658,111.57522 1400.24658,106.550781 L1400.24658,106.550781 Z M634.719238,448.357422 C621.081475,448.357422 609.098766,447.041517 598.770752,444.409668 C588.442738,441.777819 578.852583,438.507995 570,434.600098 L570,392.251465 L574.067383,392.251465 C582.999719,399.828 592.849067,405.649882 603.615723,409.717285 C614.382378,413.784688 624.829865,415.818359 634.958496,415.818359 C637.510592,415.818359 640.880106,415.539228 645.067139,414.980957 C649.254171,414.422686 652.623685,413.545416 655.175781,412.349121 C658.286148,410.99332 660.917958,409.099215 663.071289,406.666748 C665.22462,404.234281 666.30127,401.024271 666.30127,397.036621 C666.30127,392.570453 664.54673,388.941746 661.037598,386.150391 C657.528466,383.359036 653.341496,381.325364 648.476562,380.049316 C642.415334,378.454256 635.9355,376.938972 629.036865,375.503418 C622.13823,374.067864 615.698272,372.313324 609.716797,370.239746 C595.919527,365.374813 586.030303,358.835165 580.048828,350.620605 C574.067353,342.406046 571.07666,332.118063 571.07666,319.756348 C571.07666,303.08797 578.134695,289.589977 592.250977,279.261963 C606.367258,268.933949 623.992407,263.77002 645.126953,263.77002 C655.734103,263.77002 666.281279,264.846669 676.768799,267 C687.256319,269.153331 696.647094,272.064272 704.941406,275.73291 L704.941406,316.406738 L700.993652,316.406738 C694.374153,310.744275 686.299283,305.959167 676.768799,302.05127 C667.238315,298.143372 657.448781,296.189453 647.399902,296.189453 C643.492005,296.189453 639.982926,296.468584 636.872559,297.026855 C633.762191,297.585126 630.492367,298.661776 627.062988,300.256836 C624.271633,301.532884 621.859141,303.426989 619.825439,305.939209 C617.791738,308.451429 616.774902,311.26268 616.774902,314.373047 C616.774902,318.918968 618.389876,322.527737 621.619873,325.199463 C624.84987,327.871188 631.090449,330.283681 640.341797,332.437012 C646.323272,333.792813 652.08534,335.108718 657.628174,336.384766 C663.171008,337.660814 669.092579,339.415353 675.393066,341.648438 C687.754782,346.114606 696.946178,352.115929 702.967529,359.652588 C708.988881,367.189247 711.999512,377.138285 711.999512,389.5 C711.999512,407.205167 705.041167,421.440864 691.124268,432.20752 C677.207369,442.974175 658.40588,448.357422 634.719238,448.357422 L634.719238,448.357422 Z M811.865234,448.835938 C787.939333,448.835938 769.536604,443.053932 756.656494,431.489746 C743.776384,419.925561 737.336426,403.018178 737.336426,380.76709 L737.336426,267 L782.077637,267 L782.077637,378.135254 C782.077637,390.496969 784.410377,399.708303 789.075928,405.769531 C793.741478,411.830759 801.337838,414.861328 811.865234,414.861328 C822.153372,414.861328 829.709855,411.950387 834.534912,406.128418 C839.359969,400.306449 841.772461,390.975487 841.772461,378.135254 L841.772461,267 L886.513672,267 L886.513672,380.647461 C886.513672,402.579537 880.233217,419.427106 867.672119,431.190674 C855.111021,442.954242 836.508912,448.835938 811.865234,448.835938 L811.865234,448.835938 Z M1107.80273,445.127441 L1063.30078,445.127441 L1063.30078,327.053711 L1030.88135,403.257324 L1000.37598,403.257324 L967.956543,327.053711 L967.956543,445.127441 L925.847168,445.127441 L925.847168,267 L977.407227,267 L1016.88477,354.927246 L1056.24268,267 L1107.80273,267 L1107.80273,445.127441 Z M1331.604,445.127441 L1287.10205,445.127441 L1287.10205,327.053711 L1254.68262,403.257324 L1224.17725,403.257324 L1191.75781,327.053711 L1191.75781,445.127441 L1149.64844,445.127441 L1149.64844,267 L1201.2085,267 L1240.68604,354.927246 L1280.04395,267 L1331.604,267 L1331.604,445.127441 Z M1373.44971,445.127441 L1373.44971,267 L1493.91602,267 L1493.91602,300.974609 L1417.95166,300.974609 L1417.95166,332.197754 L1487.93457,332.197754 L1487.93457,366.172363 L1417.95166,366.172363 L1417.95166,411.152832 L1493.91602,411.152832 L1493.91602,445.127441 L1373.44971,445.127441 Z M1693.91113,445.127441 L1639.36035,445.127441 L1589.71436,379.810059 L1573.68408,379.810059 L1573.68408,445.127441 L1529.18213,445.127441 L1529.18213,267 L1600.83984,267 C1610.72922,267 1619.34241,267.618077 1626.67969,268.854248 C1634.01696,270.09042 1640.79587,272.662415 1647.0166,276.570312 C1653.39684,280.637716 1658.46108,285.801645 1662.20947,292.062256 C1665.95786,298.322867 1667.83203,306.278109 1667.83203,315.928223 C1667.83203,329.565986 1664.76159,340.631549 1658.62061,349.125244 C1652.47962,357.618939 1644.26519,364.377905 1633.97705,369.402344 L1693.91113,445.127441 Z M1621.89453,321.550781 C1621.89453,317.084613 1621.0372,313.236588 1619.32251,310.006592 C1617.60782,306.776595 1614.75669,304.284351 1610.76904,302.529785 C1607.97769,301.33349 1604.86737,300.575848 1601.43799,300.256836 C1598.00861,299.937824 1593.74189,299.77832 1588.6377,299.77832 L1573.68408,299.77832 L1573.68408,347.749512 L1586.48438,347.749512 C1592.70511,347.749512 1597.98867,347.370691 1602.33521,346.613037 C1606.68174,345.855384 1610.37026,344.240409 1613.40088,341.768066 C1616.27199,339.534982 1618.40535,336.863297 1619.80103,333.75293 C1621.1967,330.642563 1621.89453,326.57522 1621.89453,321.550781 L1621.89453,321.550781 Z" id="MAKER"></path>
        </g>
    </g>
</svg>