<?xml version="1.0" encoding="UTF-8" standalone="no"?>
<svg width="22px" height="22px" viewBox="0 0 22 22" version="1.1" xmlns="http://www.w3.org/2000/svg" xmlns:xlink="http://www.w3.org/1999/xlink">
    <!-- Generator: Sketch 3.7.2 (28276) - http://www.bohemiancoding.com/sketch -->
    <title>menu-toc</title>
    <desc>Created with Sketch.</desc>
    <defs></defs>
    <g id="Page-1" stroke="none" stroke-width="1" fill="none" fill-rule="evenodd">
        <g id="menu-toc" fill="#FFFFFF">
            <path d="M6,20 C6,19.4477153 6.44463086,19 7.00087166,19 L20.9991283,19 C21.5518945,19 22,19.4438648 22,20 C22,20.5522847 21.5553691,21 20.9991283,21 L7.00087166,21 C6.4481055,21 6,20.5561352 6,20 Z M2,22 C3.1045695,22 4,21.1045695 4,20 C4,18.8954305 3.1045695,18 2,18 C0.8954305,18 0,18.8954305 0,20 C0,21.1045695 0.8954305,22 2,22 Z M6,11 C6,10.4477153 6.44463086,10 7.00087166,10 L20.9991283,10 C21.5518945,10 22,10.4438648 22,11 C22,11.5522847 21.5553691,12 20.9991283,12 L7.00087166,12 C6.4481055,12 6,11.5561352 6,11 Z M2,13 C3.1045695,13 4,12.1045695 4,11 C4,9.8954305 3.1045695,9 2,9 C0.8954305,9 0,9.8954305 0,11 C0,12.1045695 0.8954305,13 2,13 Z M6,2 C6,1.44771525 6.44463086,1 7.00087166,1 L20.9991283,1 C21.5518945,1 22,1.44386482 22,2 C22,2.55228475 21.5553691,3 20.9991283,3 L7.00087166,3 C6.4481055,3 6,2.55613518 6,2 Z M2,4 C3.1045695,4 4,3.1045695 4,2 C4,0.8954305 3.1045695,0 2,0 C0.8954305,0 0,0.8954305 0,2 C0,3.1045695 0.8954305,4 2,4 Z"></path>
        </g>
    </g>
</svg>