<?xml version="1.0" encoding="UTF-8" standalone="no"?>
<svg width="38px" height="22px" viewBox="0 0 38 22" version="1.1" xmlns="http://www.w3.org/2000/svg" xmlns:xlink="http://www.w3.org/1999/xlink">
    <!-- Generator: Sketch 3.7.2 (28276) - http://www.bohemiancoding.com/sketch -->
    <title>Aa</title>
    <desc>Created with Sketch.</desc>
    <defs></defs>
    <g id="Page-1" stroke="none" stroke-width="1" fill="none" fill-rule="evenodd">
        <path d="M32.1319943,13.0200861 C30.9220408,13.4198968 29.9225291,13.8617862 29.133429,14.3457676 C27.6183568,15.2821663 26.8608321,16.3448052 26.8608321,17.5337159 C26.8608321,18.4911573 27.1764674,19.1960762 27.8077475,19.6484935 C28.2180795,19.9430909 28.6757507,20.0903874 29.1807747,20.0903874 C29.8751828,20.0903874 30.5406472,19.8957456 31.1771879,19.5064562 C31.8137287,19.1171669 32.1319943,18.6226716 32.1319943,18.0229555 L32.1319943,13.0200861 Z M26.3400287,14.8034433 C27.3079914,14.1721633 29.2386273,13.3146874 32.1319943,12.23099 L32.1319943,10.8895265 C32.1319943,9.81635044 32.0267825,9.06934692 31.8163558,8.64849354 C31.4586304,7.94356415 30.7168875,7.59110473 29.5911047,7.59110473 C29.0545167,7.59110473 28.5442396,7.72788003 28.0602582,8.00143472 C27.5762769,8.28551075 27.3342898,8.67479428 27.3342898,9.16929699 C27.3342898,9.295553 27.3605928,9.50860682 27.4131994,9.80846485 C27.4658061,10.1083229 27.492109,10.3003343 27.492109,10.384505 C27.492109,10.9736997 27.2974673,11.3840256 26.9081779,11.615495 C26.6872299,11.7522723 26.4242005,11.82066 26.1190818,11.82066 C25.6456217,11.82066 25.2826411,11.6654726 25.0301291,11.3550933 C24.7776171,11.0447139 24.651363,10.7001454 24.651363,10.3213773 C24.651363,9.58488393 25.1064039,8.81420775 26.0164993,8.00932568 C26.9265947,7.20444361 28.2601538,6.80200861 30.0172166,6.80200861 C32.0583555,6.80200861 33.4418902,7.46484273 34.1678623,8.79053085 C34.5571516,9.51650291 34.7517934,10.5738811 34.7517934,11.9626973 L34.7517934,18.2912482 C34.7517934,18.9014856 34.7938781,19.3223327 34.8780488,19.553802 C35.0148261,19.964134 35.2988979,20.169297 35.7302726,20.169297 C35.9722633,20.169297 36.1721656,20.1324729 36.3299857,20.0588235 C36.4878057,19.9851742 36.7613563,19.8063142 37.1506456,19.5222382 L37.1506456,20.3428981 C36.8139629,20.7532302 36.4509823,21.0899078 36.061693,21.3529412 C35.4724982,21.7527519 34.8727912,21.9526542 34.2625538,21.9526542 C33.5471031,21.9526542 33.0289351,21.7211884 32.7080344,21.2582496 C32.3871337,20.7953109 32.210904,20.2429492 32.17934,19.6011478 C31.3797186,20.2955558 30.6958422,20.8110935 30.1276901,21.1477762 C29.1702487,21.7159282 28.2601669,22 27.3974175,22 C26.4925828,22 25.7087551,21.6817344 25.045911,21.0451937 C24.383067,20.408653 24.0516499,19.6011527 24.0516499,18.6226686 C24.0516499,17.0970751 24.8144352,15.8240128 26.3400287,14.8034433 L26.3400287,14.8034433 Z M13.9512195,13.4619799 L10.2109039,4.56097561 L6.517934,13.4619799 L13.9512195,13.4619799 Z M0,21.7632712 L0,21.17934 C0.831185409,21.084648 1.45456511,20.7690127 1.87015782,20.2324247 C2.28575052,19.6958366 2.99856023,18.2386537 4.00860832,15.8608321 L10.7474892,0 L11.3787661,0 L19.4275466,18.3228121 C19.9641347,19.5432868 20.3928726,20.2981812 20.7137733,20.5875179 C21.034674,20.8768546 21.5738843,21.0741267 22.3314204,21.17934 L22.3314204,21.7632712 L14.1090387,21.7632712 L14.1090387,21.17934 C15.0559588,21.0951694 15.6661871,20.9925879 15.9397418,20.8715925 C16.2132964,20.7505972 16.3500717,20.453374 16.3500717,19.9799139 C16.3500717,19.8220939 16.2974659,19.5432827 16.1922525,19.143472 C16.0870392,18.7436613 15.9397427,18.3228143 15.7503587,17.8809182 L14.4088953,14.7718795 L5.94978479,14.7718795 C5.10807805,16.8866677 4.60569187,18.1781421 4.44261119,18.6463415 C4.27953051,19.1145408 4.19799139,19.4854123 4.19799139,19.758967 C4.19799139,20.3060764 4.4189361,20.6848387 4.86083214,20.8952654 C5.13438683,21.0215214 5.64992448,21.116212 6.40746055,21.17934 L6.40746055,21.7632712 L0,21.7632712 Z" id="Aa" fill="#FFFFFF"></path>
    </g>
</svg>