<?xml version="1.0" encoding="UTF-8" standalone="no"?>
<svg width="22px" height="22px" viewBox="0 0 22 22" version="1.1" xmlns="http://www.w3.org/2000/svg" xmlns:xlink="http://www.w3.org/1999/xlink">
    <g stroke="none" stroke-width="1" fill="none" fill-rule="evenodd">
      <path d="M13.4234148,15.4297524 L19.448,21.5445135 C19.7266667,21.8481712 20.1226667,22 20.504,22 C20.8853333,22 21.2666667,21.8481712 21.56,21.5445135 C22.1466667,20.9371981 22.1466667,19.9503106 21.56,19.3429952 L15.4330727,13.4187466 C16.4198155,12.0304247 17,10.332967 17,8.5 C17,3.80557963 13.1944204,0 8.5,0 C3.80557963,0 0,3.80557963 0,8.5 C0,13.1944204 3.80557963,17 8.5,17 C10.3350219,17 12.0342305,16.4185138 13.4234148,15.4297524 L13.4234148,15.4297524 Z M8.5,15 C12.0898509,15 15,12.0898509 15,8.5 C15,4.91014913 12.0898509,2 8.5,2 C4.91014913,2 2,4.91014913 2,8.5 C2,12.0898509 4.91014913,15 8.5,15 L8.5,15 Z" id="Shape" fill="#FFFFFF"></path>
    </g>
</svg>