<?xml version="1.0" encoding="UTF-8" standalone="no"?>
<svg width="100px" height="100px" viewBox="0 0 100 100" version="1.1" xmlns="http://www.w3.org/2000/svg" xmlns:xlink="http://www.w3.org/1999/xlink" xmlns:sketch="http://www.bohemiancoding.com/sketch/ns">
    <!-- Generator: Sketch 3.3.3 (12072) - http://www.bohemiancoding.com/sketch -->
    <title>social-twitter</title>
    <desc>Created with Sketch.</desc>
    <defs></defs>
    <g id="Page-1" stroke="none" stroke-width="1" fill="none" fill-rule="evenodd" sketch:type="MSPage">
        <g id="social-twitter" sketch:type="MSArtboardGroup" fill="#FFFFFF">
            <path d="M92,24.0494679 C88.909632,25.4150309 85.5878476,26.3375399 82.102261,26.7525652 C85.6600902,24.6280699 88.3930311,21.2639481 89.6794935,17.2551166 C86.3493094,19.2227145 82.6612818,20.6510335 78.7355393,21.4208407 C75.5922505,18.0843281 71.1133646,16 66.1565166,16 C56.6393028,16 48.9226298,23.6858993 48.9226298,33.1661989 C48.9226298,34.5116808 49.0750887,35.8220206 49.3690893,37.0783911 C35.0462227,36.3625581 22.3479237,29.5280396 13.8479497,19.1419702 C12.3645075,21.6773 11.5144249,24.6259817 11.5144249,27.772138 C11.5144249,33.7280715 14.5569119,38.9823986 19.1811157,42.0607736 C16.356194,41.9716622 13.6988508,41.1993473 11.3754056,39.9136942 C11.3734464,39.9852321 11.3734464,40.0571896 11.3734464,40.1295716 C11.3734464,48.4467981 17.3139402,55.3846498 25.1977703,56.9627482 C23.7517081,57.3551798 22.2292058,57.564783 20.657559,57.564783 C19.5470797,57.564783 18.4676818,57.4568443 17.4151582,57.2568621 C19.6084002,64.0767344 25.9726716,69.0398749 33.514204,69.1779353 C27.616135,73.7825324 20.1854841,76.5270508 12.1109677,76.5270508 C10.7199225,76.5270508 9.34820408,76.4454674 8,76.2869013 C15.6267933,81.1580031 24.6853669,84 34.4176237,84 C66.116335,84 83.4510235,57.8421675 83.4510235,35.1563905 C83.4510235,34.4121093 83.434224,33.6720091 83.4010463,32.9352607 C86.767768,30.5153976 89.689294,27.4922409 91.9997208,24.0494679 L92,24.0494679 Z" id="twitter" sketch:type="MSShapeGroup"></path>
        </g>
    </g>
</svg>