<?xml version="1.0" encoding="UTF-8" standalone="no"?>
<svg width="85px" height="60px" viewBox="0 0 85 60" version="1.1" xmlns="http://www.w3.org/2000/svg" xmlns:xlink="http://www.w3.org/1999/xlink" xmlns:sketch="http://www.bohemiancoding.com/sketch/ns">
    <!-- Generator: Sketch 3.3.2 (12043) - http://www.bohemiancoding.com/sketch -->
    <title>youtube-black</title>
    <desc>Created with Sketch.</desc>
    <defs></defs>
    <g id="Page-1" stroke="none" stroke-width="1" fill="none" fill-rule="evenodd" sketch:type="MSPage">
        <g id="youtube-black" sketch:type="MSArtboardGroup">
            <g sketch:type="MSLayerGroup">
                <path d="M56.6576566,28.1472323 L33.7026663,16.1305424 L33.7026663,40.0804729 L56.6576566,28.1472323 Z" id="triangle" fill="#FFFFFF" sketch:type="MSShapeGroup"></path>
                <path d="M53.8311986,30.6166064 L33.7026663,17.1305424 L56.6576566,29.1472323 L53.8311986,30.6166064" id="triangle-shadow" fill="#DFDEDA" sketch:type="MSShapeGroup"></path>
                <path d="M33.7065753,41.0804729 L33.7026663,17.1305424 L56.6576566,29.1472323 L33.7065753,41.0804729 L33.7065753,41.0804729 Z M84.1059198,12.9815299 C84.1059198,12.9815299 83.2758806,7.1076217 80.7285421,4.52094576 C77.4980431,1.12598053 73.8769765,1.10912378 72.2163992,0.910431154 C60.3282926,0.0481502086 42.4955088,0.0481502086 42.4955088,0.0481502086 L42.4585812,0.0481502086 C42.4585812,0.0481502086 24.6262133,0.0481502086 12.7376908,0.910431154 C11.0770303,1.10912378 7.45729452,1.12598053 4.22563112,4.52094576 C1.6784589,7.1076217 0.849584149,12.9815299 0.849584149,12.9815299 C0.849584149,12.9815299 0,19.8794437 0,26.777274 L0,33.2440056 C0,40.1417524 0.849584149,47.0395828 0.849584149,47.0395828 C0.849584149,47.0395828 1.6784589,52.9135744 4.22563112,55.5002503 C7.45729452,58.895299 11.7023043,58.7878999 13.5930137,59.1437274 C20.3894374,59.7976356 42.4771282,60 42.4771282,60 C42.4771282,60 60.3282926,59.9730459 72.2163992,59.1108484 C73.8769765,58.9120723 77.4980431,58.895299 80.7285421,55.5002503 C83.2758806,52.9135744 84.1059198,47.0395828 84.1059198,47.0395828 C84.1059198,47.0395828 84.9542564,40.1417524 84.9542564,33.2440056 L84.9542564,26.777274 C84.9542564,19.8794437 84.1059198,12.9815299 84.1059198,12.9815299 L84.1059198,12.9815299 L84.1059198,12.9815299 Z" id="button-body" fill="#222421" sketch:type="MSShapeGroup"></path>
            </g>
        </g>
    </g>
</svg>